name analog
datacolumns 19
datarows 52
range 0.388 0.41350000000000003
endheader
time	ground_force_vx	ground_force_vy	ground_force_vz	ground_force_px	ground_force_py	ground_force_pz	l_ground_force_vx	l_ground_force_vy	l_ground_force_vz	l_ground_force_px	l_ground_force_py	l_ground_force_pz	ground_torque_x	ground_torque_y	ground_torque_z	l_ground_torque_x	l_ground_torque_y	l_ground_torque_z
0.388	-0.0	-0.0	-0.0	-0.0	-0.0	-0.0	13.723759651184082	9.786843299865724	-656.2637939453125	-0.0	-0.0	-0.0	-0.0	-0.0	-0.0	177947.125	-14985.20703125	-266.7302551269531
0.3885	-0.0	-0.0	-0.0	-0.0	-0.0	-0.0	11.39099407196045	8.204294204711914	-651.686279296875	-0.0	-0.0	-0.0	-0.0	-0.0	-0.0	177522.75	-14585.6806640625	-529.346435546875
0.389	-0.0	-0.0	-0.0	-0.0	-0.0	-0.0	9.413233757019045	7.023265838623047	-648.7626342773438	-0.0	-0.0	-0.0	-0.0	-0.0	-0.0	176668.9375	-14258.4794921875	-975.9129638671876
0.3895	-0.0	-0.0	-0.0	-0.0	-0.0	-0.0	7.655328273773193	6.140409469604492	-646.9146728515625	-0.0	-0.0	-0.0	-0.0	-0.0	-0.0	175613.640625	-14006.9775390625	-977.2905883789062
0.39	-0.0	-0.0	-0.0	-0.0	-0.0	-0.0	7.034289360046387	6.146241664886475	-642.9721069335938	-0.0	-0.0	-0.0	-0.0	-0.0	-0.0	174977.421875	-14107.119140625	-830.916748046875
0.3905	-0.0	-0.0	-0.0	-0.0	-0.0	-0.0	7.185573577880859	6.899575710296631	-640.529541015625	-0.0	-0.0	-0.0	-0.0	-0.0	-0.0	174623.375	-13733.25390625	-598.6535034179688
0.391	-0.0	-0.0	-0.0	-0.0	-0.0	-0.0	7.639847755432129	7.533226013183594	-640.6510620117188	-0.0	-0.0	-0.0	-0.0	-0.0	-0.0	174736.4375	-13902.6953125	-250.9363250732422
0.3915	-0.0	-0.0	-0.0	-0.0	-0.0	-0.0	8.250102996826172	8.390560150146484	-639.049560546875	-0.0	-0.0	-0.0	-0.0	-0.0	-0.0	174531.75	-14157.232421875	-14.355167388916016
0.392	-0.0	-0.0	-0.0	-0.0	-0.0	-0.0	8.139067649841309	9.450420379638672	-639.5001220703125	-0.0	-0.0	-0.0	-0.0	-0.0	-0.0	174830.9375	-14364.35546875	139.2215118408203
0.3925	-0.0	-0.0	-0.0	-0.0	-0.0	-0.0	7.946831703186035	10.356244087219238	-641.74072265625	-0.0	-0.0	-0.0	-0.0	-0.0	-0.0	175508.578125	-14796.302734375	156.6024932861328
0.393	-0.0	-0.0	-0.0	-0.0	-0.0	-0.0	7.652273654937744	10.638279914855955	-644.6351318359375	-0.0	-0.0	-0.0	-0.0	-0.0	-0.0	176174.28125	-15626.31640625	4.274491786956787
0.3935	-0.0	-0.0	-0.0	-0.0	-0.0	-0.0	7.528641223907471	11.065743446350098	-647.5753173828125	-0.0	-0.0	-0.0	-0.0	-0.0	-0.0	177330.609375	-16298.255859375	55.68019485473633
0.394	-0.0	-0.0	-0.0	-0.0	-0.0	-0.0	8.262089729309082	11.379969596862791	-650.327880859375	-0.0	-0.0	-0.0	-0.0	-0.0	-0.0	177900.546875	-16820.716796875	415.51116943359375
0.3945	-0.0	-0.0	-0.0	-0.0	-0.0	-0.0	8.643722534179688	11.582305908203123	-653.9609375	-0.0	-0.0	-0.0	-0.0	-0.0	-0.0	178542.984375	-17365.28515625	526.3444213867188
0.395	-0.0	-0.0	-0.0	-0.0	-0.0	-0.0	8.845650672912598	11.103216171264648	-655.7044677734375	-0.0	-0.0	-0.0	-0.0	-0.0	-0.0	178777.78125	-18133.955078125	674.5697631835938
0.3955	-0.0	-0.0	-0.0	-0.0	-0.0	-0.0	8.858461380004883	11.44387435913086	-655.60693359375	-0.0	-0.0	-0.0	-0.0	-0.0	-0.0	178692.8125	-18357.6015625	755.0269165039062
0.396	-0.0	-0.0	-0.0	-0.0	-0.0	-0.0	8.617384910583496	11.771960258483888	-655.6561279296875	-0.0	-0.0	-0.0	-0.0	-0.0	-0.0	178637.03125	-18645.1328125	890.5841674804688
0.3965	-0.0	-0.0	-0.0	-0.0	-0.0	-0.0	8.971975326538086	11.393497467041016	-655.4568481445312	-0.0	-0.0	-0.0	-0.0	-0.0	-0.0	178375.0	-18716.74609375	903.2708740234376
0.397	-0.0	-0.0	-0.0	-0.0	-0.0	-0.0	8.998202323913574	11.481819152832031	-655.1596069335938	-0.0	-0.0	-0.0	-0.0	-0.0	-0.0	178086.234375	-18940.068359375	1111.3206787109375
0.3975	-0.0	-0.0	-0.0	-0.0	-0.0	-0.0	8.820924758911133	10.813633918762209	-655.0614624023438	-0.0	-0.0	-0.0	-0.0	-0.0	-0.0	177944.921875	-19191.42578125	1169.79541015625
0.398	-0.0	-0.0	-0.0	-0.0	-0.0	-0.0	9.00981616973877	10.043767929077148	-653.9609375	-0.0	-0.0	-0.0	-0.0	-0.0	-0.0	177619.453125	-19072.4765625	1228.9776611328125
0.3985	-0.0	-0.0	-0.0	-0.0	-0.0	-0.0	8.771332740783691	8.956303596496582	-654.1685791015625	-0.0	-0.0	-0.0	-0.0	-0.0	-0.0	177186.8125	-19220.140625	1406.412841796875
0.399	-0.0	-0.0	-0.0	-0.0	-0.0	-0.0	8.530324935913086	8.263445854187012	-653.513916015625	-0.0	-0.0	-0.0	-0.0	-0.0	-0.0	176651.25	-18875.5625	1178.0924072265625
0.3995	-0.0	-0.0	-0.0	-0.0	-0.0	-0.0	6.688615798950195	7.850172519683838	-651.7534790039062	-0.0	-0.0	-0.0	-0.0	-0.0	-0.0	176511.75	-19143.08203125	901.4539184570312
0.4	-0.0	-0.0	-0.0	-0.0	-0.0	-0.0	6.475887298583984	6.923859119415283	-652.0205688476562	-0.0	-0.0	-0.0	-0.0	-0.0	-0.0	176130.21875	-19222.427734375	683.7780151367188
0.4005	-0.0	-0.0	-0.0	-0.0	-0.0	-0.0	6.21969747543335	6.702549457550049	-651.5748901367188	-0.0	-0.0	-0.0	-0.0	-0.0	-0.0	175896.453125	-19201.30859375	739.4797973632812
0.401	-0.0	-0.0	-0.0	-0.0	-0.0	-0.0	6.864960193634033	5.765389919281006	-649.6743774414062	-0.0	-0.0	-0.0	-0.0	-0.0	-0.0	175389.390625	-19424.580078125	864.830078125
0.4015	-0.0	-0.0	-0.0	-0.0	-0.0	-0.0	7.564932823181152	5.113344669342041	-649.578125	-0.0	-0.0	-0.0	-0.0	-0.0	-0.0	175261.0625	-19434.080078125	947.730224609375
0.402	-0.0	-0.0	-0.0	-0.0	-0.0	-0.0	8.2256498336792	3.919562816619873	-648.6879272460938	-0.0	-0.0	-0.0	-0.0	-0.0	-0.0	174379.6875	-19275.2890625	937.651611328125
0.4025	-0.0	-0.0	-0.0	-0.0	-0.0	-0.0	8.476276397705078	3.435790777206421	-644.1234130859375	-0.0	-0.0	-0.0	-0.0	-0.0	-0.0	173442.71875	-19220.408203125	1134.134521484375
0.403	-0.0	-0.0	-0.0	-0.0	-0.0	-0.0	8.91970443725586	2.175333261489868	-641.1380615234375	-0.0	-0.0	-0.0	-0.0	-0.0	-0.0	172406.21875	-18947.970703125	1182.47216796875
0.4035	-0.0	-0.0	-0.0	-0.0	-0.0	-0.0	8.338813781738281	0.9633144736289978	-636.8525390625	-0.0	-0.0	-0.0	-0.0	-0.0	-0.0	171120.046875	-18758.97265625	1044.41650390625
0.404	-0.0	-0.0	-0.0	-0.0	-0.0	-0.0	7.564582347869873	-0.5539896488189697	-634.6312866210938	-0.0	-0.0	-0.0	-0.0	-0.0	-0.0	170428.125	-18178.451171875	776.5043334960938
0.4045	-0.0	-0.0	-0.0	-0.0	-0.0	-0.0	7.637834072113037	-2.03139877319336	-633.7747192382812	-0.0	-0.0	-0.0	-0.0	-0.0	-0.0	170209.25	-17915.44921875	700.7339477539062
0.405	-0.0	-0.0	-0.0	-0.0	-0.0	-0.0	7.1781768798828125	-3.950554370880127	-632.9172973632812	-0.0	-0.0	-0.0	-0.0	-0.0	-0.0	169708.25	-17549.634765625	586.2606811523438
0.4055	-0.0	-0.0	-0.0	-0.0	-0.0	-0.0	6.823621273040772	-5.074957847595215	-632.0587768554688	-0.0	-0.0	-0.0	-0.0	-0.0	-0.0	169452.15625	-17517.623046875	478.1885681152344
0.406	-0.0	-0.0	-0.0	-0.0	-0.0	-0.0	6.984259605407715	-6.277667999267578	-629.8695068359375	-0.0	-0.0	-0.0	-0.0	-0.0	-0.0	169278.4375	-17227.677734375	426.65863037109375
0.40650000000000003	-0.0	-0.0	-0.0	-0.0	-0.0	-0.0	7.144493103027344	-6.6715474128723145	-630.38037109375	-0.0	-0.0	-0.0	-0.0	-0.0	-0.0	169191.5625	-16721.974609375	420.8732604980469
0.40700000000000003	-0.0	-0.0	-0.0	-0.0	-0.0	-0.0	7.055656909942627	-6.494779586791992	-628.728515625	-0.0	-0.0	-0.0	-0.0	-0.0	-0.0	169462.46875	-16521.638671875	211.0166015625
0.40750000000000003	-0.0	-0.0	-0.0	-0.0	-0.0	-0.0	7.918941974639893	-4.940408229827881	-630.7305297851562	-0.0	-0.0	-0.0	-0.0	-0.0	-0.0	169774.046875	-16473.48828125	397.9286193847656
0.40800000000000003	-0.0	-0.0	-0.0	-0.0	-0.0	-0.0	9.515658378601074	-4.268624782562256	-632.56982421875	-0.0	-0.0	-0.0	-0.0	-0.0	-0.0	170310.0625	-16555.603515625	642.5057983398438
0.40850000000000003	-0.0	-0.0	-0.0	-0.0	-0.0	-0.0	10.379161834716797	-3.9799044132232666	-634.059326171875	-0.0	-0.0	-0.0	-0.0	-0.0	-0.0	170999.34375	-16251.31640625	787.3309326171875
0.40900000000000003	-0.0	-0.0	-0.0	-0.0	-0.0	-0.0	10.645294189453123	-3.756236076354981	-635.271240234375	-0.0	-0.0	-0.0	-0.0	-0.0	-0.0	171960.40625	-15921.412109375	888.6913452148438
0.40950000000000003	-0.0	-0.0	-0.0	-0.0	-0.0	-0.0	9.688005447387695	-3.946341991424561	-637.972900390625	-0.0	-0.0	-0.0	-0.0	-0.0	-0.0	172312.890625	-15253.5908203125	613.1873779296875
0.41000000000000003	-0.0	-0.0	-0.0	-0.0	-0.0	-0.0	8.665712356567383	-3.137716293334961	-638.13916015625	-0.0	-0.0	-0.0	-0.0	-0.0	-0.0	173032.875	-14716.2041015625	375.3952331542969
0.41050000000000003	-0.0	-0.0	-0.0	-0.0	-0.0	-0.0	7.736787796020508	-1.5855050086975098	-639.1135864257812	-0.0	-0.0	-0.0	-0.0	-0.0	-0.0	173524.4375	-14274.26953125	-129.10812377929688
0.41100000000000003	-0.0	-0.0	-0.0	-0.0	-0.0	-0.0	7.29344367980957	0.1766433715820312	-638.6141357421875	-0.0	-0.0	-0.0	-0.0	-0.0	-0.0	174052.296875	-13684.052734375	-30.83869171142578
0.41150000000000003	-0.0	-0.0	-0.0	-0.0	-0.0	-0.0	7.656022548675537	1.6513348817825315	-640.0711059570312	-0.0	-0.0	-0.0	-0.0	-0.0	-0.0	174155.46875	-13370.4619140625	145.19113159179688
0.41200000000000003	-0.0	-0.0	-0.0	-0.0	-0.0	-0.0	8.28007698059082	1.5473543405532837	-639.7227783203125	-0.0	-0.0	-0.0	-0.0	-0.0	-0.0	173977.40625	-12855.958984375	658.8907470703125
0.41250000000000003	-0.0	-0.0	-0.0	-0.0	-0.0	-0.0	9.094462394714355	0.6411322355270386	-636.3477783203125	-0.0	-0.0	-0.0	-0.0	-0.0	-0.0	173320.8125	-12350.9921875	1007.5235595703124
0.41300000000000003	-0.0	-0.0	-0.0	-0.0	-0.0	-0.0	8.690744400024414	0.2649650573730469	-635.5346069335938	-0.0	-0.0	-0.0	-0.0	-0.0	-0.0	173070.015625	-11690.525390625	1000.4805297851562
0.41350000000000003	-0.0	-0.0	-0.0	-0.0	-0.0	-0.0	7.846965789794922	-0.3532867431640625	-634.6677856445312	-0.0	-0.0	-0.0	-0.0	-0.0	-0.0	172758.71875	-10936.2431640625	976.7689208984376
